<svg width="214" height="72" viewBox="0 0 214 72" fill="none" xmlns="http://www.w3.org/2000/svg">
<path d="M82 16H90.3865V29.2134C92.3343 28.4249 94.7587 27.8072 97.5749 27.8072C105.362 27.8072 107.758 32.8253 107.758 39.3193V53.7831H99.372V38.7289C99.372 35.1867 96.6763 34.3012 93.6812 34.5964C92.6761 34.6954 91.5024 35.0936 90.3865 35.579V53.7831H82V16Z" fill="white"/>
<path d="M191.324 16H199.71V44.6325C199.71 45.8133 200.309 46.4036 201.208 46.4036C202.556 46.4036 203.604 45.5181 203.604 45.5181L206 51.7169C206 51.7169 204.502 54.3735 199.411 54.3735C193.72 54.3735 191.324 50.241 191.324 44.6325V16Z" fill="white"/>
<path fill-rule="evenodd" clip-rule="evenodd" d="M176.947 47.2892C180.242 47.2892 182.629 45.5181 182.629 45.5181L186.831 50.241C185.932 51.4217 181.739 54.3735 176.348 54.3735C168.904 54.3735 163.469 48.4264 163.469 41.0904C163.469 33.7543 168.904 27.8072 176.348 27.8072C183.792 27.8072 188.628 33.7543 188.628 41.0904C188.628 42.5663 188.534 43.1566 188.534 43.1566H171.452C172.013 45.8236 173.792 47.2892 176.947 47.2892ZM171.572 38.4337C172.179 36.0765 173.69 34.3012 176.348 34.3012C179.227 34.3012 180.632 36.0765 181.169 38.4337H171.572Z" fill="white"/>
<path fill-rule="evenodd" clip-rule="evenodd" d="M129.315 45.5181C129.315 45.5181 126.928 47.2892 123.633 47.2892C120.478 47.2892 118.699 45.8236 118.138 43.1566H135.22C135.22 43.1566 135.314 42.5663 135.314 41.0904C135.314 33.7543 130.478 27.8072 123.034 27.8072C115.59 27.8072 110.155 33.7543 110.155 41.0904C110.155 48.4264 115.59 54.3735 123.034 54.3735C128.425 54.3735 132.618 51.4217 133.517 50.241L129.315 45.5181ZM123.034 34.3012C120.376 34.3012 118.865 36.0765 118.258 38.4337H127.855C127.318 36.0765 125.913 34.3012 123.034 34.3012Z" fill="white"/>
<path fill-rule="evenodd" clip-rule="evenodd" d="M149.391 46.1084C155.843 46.1084 160.473 42.3376 160.473 36.9578C160.473 36.0599 160.344 35.2068 160.099 34.4085L163.609 31.4079L159.401 26.6265L156.07 29.4737C154.254 28.4086 151.968 27.8072 149.391 27.8072C142.94 27.8072 138.309 31.578 138.309 36.9578C138.309 40.2265 140.019 42.9012 142.807 44.497C142.594 45.3574 142.505 46.2164 142.505 46.9937C142.505 47.5857 142.556 48.2252 142.675 48.8766C138.454 50.2093 135.913 52.8293 135.913 56.4398C135.913 61.8195 141.554 65 149.99 65C158.427 65 164.068 61.8195 164.068 56.4398C164.068 51.06 158.427 47.8795 149.99 47.8795C149.511 47.8795 149.041 47.8898 148.581 47.9101C148.529 47.6511 148.495 47.3466 148.495 46.9943C148.495 46.6464 148.528 46.3451 148.579 46.0882C148.846 46.1016 149.117 46.1084 149.391 46.1084ZM153.285 36.9578C153.285 34.8916 151.488 34.3012 149.391 34.3012C147.295 34.3012 145.498 34.8916 145.498 36.9578C145.498 39.0241 147.295 39.6145 149.391 39.6145C151.488 39.6145 153.285 39.0241 153.285 36.9578ZM149.99 54.3735C155.082 54.3735 156.794 54.9639 156.794 56.4398C156.794 57.9157 155.082 58.506 149.99 58.506C144.899 58.506 143.187 57.9157 143.187 56.4398C143.187 54.9639 144.899 54.3735 149.99 54.3735Z" fill="white"/>
<path d="M50 54L50 18L42 18L42 54L50 54Z" fill="url(#paint0_linear)"/>
<path d="M30 54L30 18L22 18L22 54L30 54Z" fill="url(#paint1_linear)"/>
<path d="M6 54C6 57.3137 8.6863 60 12 60H30V54H15C14.4477 54 14 53.5523 14 53V19C14 18.4477 14.4477 18 15 18H30V12H12C8.68629 12 6 14.6863 6 18L6 54Z" fill="white"/>
<path d="M42 12H60C63.3137 12 66 14.6863 66 18V54C66 57.3137 63.3137 60 60 60H42V54H57C57.5523 54 58 53.5523 58 53V19C58 18.4477 57.5523 18 57 18H42V12Z" fill="white"/>
<rect x="22" y="33" width="28" height="6" fill="white"/>
<defs>
<linearGradient id="paint0_linear" x1="46" y1="18" x2="46" y2="54" gradientUnits="userSpaceOnUse">
<stop stop-color="#50ABFF"/>
<stop offset="1" stop-color="#AD00FF"/>
</linearGradient>
<linearGradient id="paint1_linear" x1="26" y1="18" x2="26" y2="54" gradientUnits="userSpaceOnUse">
<stop stop-color="#50ABFF"/>
<stop offset="1" stop-color="#AD00FF"/>
</linearGradient>
</defs>
</svg>
